<?xml version="1.0" standalone="yes"?>
<svg xmlns="http://www.w3.org/2000/svg" width="565" height="544">
<path style="fill:#151d25; stroke:none;" d="M0 0L0 544L565 544L565 0L0 0z"/>
<path style="fill:#346871; stroke:none;" d="M188 4L188 6L190 6L190 4L188 4M91.6667 7.33331L92.3333 7.66669L91.6667 7.33331M140 8L141 25L142 25L140 8M371 8L371 16L372 16L371 8M8 11L8 25L10 25L8 11M127 12L126 26L127 27L130 26L127 12z"/>
<path style="fill:#3f959e; stroke:none;" d="M140 16L139 27L144 28L140 16M371 16L371 25L372 25L371 16z"/>
<path style="fill:#346871; stroke:none;" d="M412 17C412.001 24.9784 410.572 39.646 417 45L412 17M18 24L19 51L20 51L18 24z"/>
<path style="fill:#66a6ac; stroke:none;" d="M127 24L127 26L129 26L127 24z"/>
<path style="fill:#346871; stroke:none;" d="M204 24L204 48L205 48L204 24z"/>
<path style="fill:#3f959e; stroke:none;" d="M5 29C8.27197 27.6749 9.48792 27.4769 12 30C12.1158 24.8076 7.45435 26.1633 5 29z"/>
<path style="fill:#346871; stroke:none;" d="M38 25L38 57L39 57L38 25M139 25L140 26L139 25M370 25L371 26L370 25z"/>
<path style="fill:#66a6ac; stroke:none;" d="M371 25L372 26L371 25z"/>
<path style="fill:#346871; stroke:none;" d="M372 25L374 27L372 25M6 26L7 27L6 26z"/>
<path style="fill:#2ee0e9; stroke:none;" d="M8.18519 27.3448C4.83218 28.5127 6.13137 33.8525 9.72222 32.338C12.5462 31.1469 11.2425 26.28 8.18519 27.3448z"/>
<path style="fill:#346871; stroke:none;" d="M11 26L12 27L11 26M138 26C135.129 31.707 138.33 33.8154 144 34L144 33C138.741 32.5985 138.111 30.85 138 26z"/>
<path style="fill:#2ee0e9; stroke:none;" d="M140.171 27.1759C136.686 27.6919 137.235 32.997 140.91 32.5339C144.569 32.073 143.679 26.6565 140.171 27.1759z"/>
<path style="fill:#346871; stroke:none;" d="M143 26L144 27L143 26M168 26L170 28L168 26M265 26L265 40L266 40L265 26M368 26L369 27L368 26z"/>
<path style="fill:#3f959e; stroke:none;" d="M368 28L371 27L368 28z"/>
<path style="fill:#2ee0e9; stroke:none;" d="M371.09 27.1759C367.464 27.6937 368.234 32.9949 371.91 32.5339C375.617 32.0689 374.645 26.6683 371.09 27.1759z"/>
<path style="fill:#3f959e; stroke:none;" d="M372 26L373 27L372 26z"/>
<path style="fill:#346871; stroke:none;" d="M5 27L6 28L5 27M12 27L13 28L12 27z"/>
<path style="fill:#66a6ac; stroke:none;" d="M168 27L169 28L168 27z"/>
<path style="fill:#3f959e; stroke:none;" d="M374 27L375 28L374 27z"/>
<path style="fill:#346871; stroke:none;" d="M390 27L392 65L393 65L390 27z"/>
<path style="fill:#3f959e; stroke:none;" d="M412 27C412 32.7683 410.609 39.7003 415 44L412 27M137 28L138 29L137 28z"/>
<path style="fill:#346871; stroke:none;" d="M144 28L145 29L144 28M367 28L368 29L367 28M375 28L375 32L376 32L375 28M4.33333 29.6667L4.66667 30.3333L4.33333 29.6667z"/>
<path style="fill:#66a6ac; stroke:none;" d="M5 29L6 30L5 29M144 29L145 30L144 29z"/>
<path style="fill:#3f959e; stroke:none;" d="M367.333 29.6667L367.667 30.3333L367.333 29.6667z"/>
<path style="fill:#66a6ac; stroke:none;" d="M12 30L13 31L12 30z"/>
<path style="fill:#3f959e; stroke:none;" d="M144.333 30.6667L144.667 31.3333L144.333 30.6667M5 31L6 32L5 31M12 31L13 32L12 31z"/>
<path style="fill:#346871; stroke:none;" d="M367 31L368 32L367 31M5 32L6 33L5 32z"/>
<path style="fill:#66a6ac; stroke:none;" d="M11 32L12 33L11 32z"/>
<path style="fill:#346871; stroke:none;" d="M12 32L13 33L12 32M88 32L87 56L89 56L88 32z"/>
<path style="fill:#66a6ac; stroke:none;" d="M143 32L144 33L143 32M368 32L369 33L368 32z"/>
<path style="fill:#3f959e; stroke:none;" d="M374 32L375 33L374 32z"/>
<path style="fill:#346871; stroke:none;" d="M6 33L6 34L12 34L6 33M368.667 33.3333L369.333 33.6667L368.667 33.3333z"/>
<path style="fill:#3f959e; stroke:none;" d="M370 33L371 34L370 33z"/>
<path style="fill:#346871; stroke:none;" d="M371 33L372 34L371 33z"/>
<path style="fill:#3f959e; stroke:none;" d="M372 33L373 34L372 33z"/>
<path style="fill:#346871; stroke:none;" d="M373 33L374 34L373 33M555 38L554 80L555 80C555 68.0414 559.596 48.9523 555 38M189.667 40.3333L190.333 40.6667L189.667 40.3333z"/>
<path style="fill:#3f959e; stroke:none;" d="M265 40L265 48L266 48L265 40z"/>
<path style="fill:#346871; stroke:none;" d="M411 42L412 43L411 42z"/>
<path style="fill:#2ee0e9; stroke:none;" d="M412 42C405.07 52.054 421.814 48.7066 412 42z"/>
<path style="fill:#346871; stroke:none;" d="M409 43L410 44L409 43z"/>
<path style="fill:#3f959e; stroke:none;" d="M410 43L411 44L410 43M390 44C390 49.4061 387.755 61.2905 392 65L390 44M409 44L410 45L409 44z"/>
<path style="fill:#346871; stroke:none;" d="M408 45L408 48L409 48L408 45z"/>
<path style="fill:#3f959e; stroke:none;" d="M416 45L417 46L416 45z"/>
<path style="fill:#66a6ac; stroke:none;" d="M416.333 46.6667L416.667 47.3333L416.333 46.6667z"/>
<path style="fill:#346871; stroke:none;" d="M159 48L159 72L160 72L159 48z"/>
<path style="fill:#3f959e; stroke:none;" d="M204 48L204 56L205 56L204 48z"/>
<path style="fill:#346871; stroke:none;" d="M251 48C251 60.439 248.079 74.3484 256.951 83.9992C260.583 87.9511 262.25 91.5298 268 90L268 89L262 90L265 87L265 86C260.65 84.8528 256.378 82.4998 255 78C250.059 71.4786 253 56.0429 253 48L251 48z"/>
<path style="fill:#66a6ac; stroke:none;" d="M265 48L265 64L266 64L265 48z"/>
<path style="fill:#346871; stroke:none;" d="M266 48L267 65L268 65L266 48z"/>
<path style="fill:#3f959e; stroke:none;" d="M409 48L411 50L409 48z"/>
<path style="fill:#346871; stroke:none;" d="M416 48L417 49L416 48M409 49L410 50L409 49z"/>
<path style="fill:#3f959e; stroke:none;" d="M414.667 49.3333L415.333 49.6667L414.667 49.3333M18 50L16 53L18 50z"/>
<path style="fill:#346871; stroke:none;" d="M16 51L17 52L16 51z"/>
<path style="fill:#2ee0e9; stroke:none;" d="M18 51L17 55L21 54L21 52L18 51z"/>
<path style="fill:#66a6ac; stroke:none;" d="M19 51L20 52L19 51z"/>
<path style="fill:#3f959e; stroke:none;" d="M20 51L21 52L20 51z"/>
<path style="fill:#346871; stroke:none;" d="M350 51L350 54L351 54L350 51M21 52L17 55L17 56C19.7583 55.5487 21.6883 55.0456 21 52z"/>
<path style="fill:#66a6ac; stroke:none;" d="M16 53L17 54L16 53z"/>
<path style="fill:#3f959e; stroke:none;" d="M16 54L17 55L16 54z"/>
<path style="fill:#66a6ac; stroke:none;" d="M19.6667 54.3333L20.3333 54.6667L19.6667 54.3333z"/>
<path style="fill:#346871; stroke:none;" d="M351 55L360 64L351 55z"/>
<path style="fill:#66a6ac; stroke:none;" d="M88 56L89 57L88 56z"/>
<path style="fill:#346871; stroke:none;" d="M179 56L179 72L180 72L179 56M204 56L205 57L204 56z"/>
<path style="fill:#3f959e; stroke:none;" d="M555 56L554 88L556 88L555 56M38 57L39 58L38 57z"/>
<path style="fill:#346871; stroke:none;" d="M88 57L96 65L88 57z"/>
<path style="fill:#3f959e; stroke:none;" d="M204 57L203 61L206 61L204 57z"/>
<path style="fill:#346871; stroke:none;" d="M38 58C35.434 61.6917 35.0587 64.1722 40 65L40 64L36 64L38 59L39 59L41 61L38 58z"/>
<path style="fill:#3f959e; stroke:none;" d="M37 60L37 61L41 62L39 59L37 60z"/>
<path style="fill:#346871; stroke:none;" d="M203 59L204 60L203 59M205 59L206 60L205 59z"/>
<path style="fill:#2ee0e9; stroke:none;" d="M38 60L36 64L40 64L38 60z"/>
<path style="fill:#346871; stroke:none;" d="M202 60C201.453 63.5602 202.51 64.4193 206 65L206 64L202 64L202 60z"/>
<path style="fill:#2ee0e9; stroke:none;" d="M204 60L202 64L207 63L204 60z"/>
<path style="fill:#346871; stroke:none;" d="M206 60L207 61L206 60M381.667 60.3333L382.333 60.6667L381.667 60.3333z"/>
<path style="fill:#66a6ac; stroke:none;" d="M36 61L37 62L36 61M202 61L203 62L202 61M206 61L207 62L206 61M40.3333 62.6667L40.6667 63.3333L40.3333 62.6667z"/>
<path style="fill:#346871; stroke:none;" d="M547 62L548 63L547 62z"/>
<path style="fill:#66a6ac; stroke:none;" d="M206 63L207 64L206 63z"/>
<path style="fill:#346871; stroke:none;" d="M263 64L262 66L263 64z"/>
<path style="fill:#3f959e; stroke:none;" d="M262 67L267 65L262 67M360 64L361 65L360 64z"/>
<path style="fill:#346871; stroke:none;" d="M361 64L369 75C377.315 77.2594 375 93.3562 375 100L376 100C376 83.3995 375.763 74.399 361 64M387 66L390 65L387 66M547 64L546 115L544 144C549.601 139.335 548 131.694 548 125L548 84C548 77.846 549.395 69.7072 547 64z"/>
<path style="fill:#66a6ac; stroke:none;" d="M95 65L96 66L95 65z"/>
<path style="fill:#2ee0e9; stroke:none;" d="M264.318 66.0818C260.916 68.107 264.541 72.1449 267.382 69.9576C270.005 67.9379 266.981 64.4969 264.318 66.0818z"/>
<path style="fill:#3f959e; stroke:none;" d="M268 65L269 66L268 65M388 65L387 67L388 65z"/>
<path style="fill:#2ee0e9; stroke:none;" d="M389.343 66.0818C386.113 68.0618 389.62 72.1408 392.393 69.9576C394.964 67.933 391.99 64.4588 389.343 66.0818z"/>
<path style="fill:#3f959e; stroke:none;" d="M393 65L394 66L393 65z"/>
<path style="fill:#346871; stroke:none;" d="M95 66L98 74L99 74L98 66L95 66z"/>
<path style="fill:#3f959e; stroke:none;" d="M96 66L97 67L96 66z"/>
<path style="fill:#346871; stroke:none;" d="M269 66L270 67L269 66M394 66L395 67L394 66M228 67L230 69L230 67L228 67M261 67L261 70L262 70L261 67z"/>
<path style="fill:#3f959e; stroke:none;" d="M269 67L269 70L270 70L269 67z"/>
<path style="fill:#346871; stroke:none;" d="M386 67L386 70L387 70L386 67z"/>
<path style="fill:#3f959e; stroke:none;" d="M394 67L395 68L394 67z"/>
<path style="fill:#66a6ac; stroke:none;" d="M394 68L395 69L394 68M387 69L388 70L387 69z"/>
<path style="fill:#3f959e; stroke:none;" d="M394 69L395 70L394 69M99 72L104 72L99 72z"/>
<path style="fill:#346871; stroke:none;" d="M103 70L104 71L103 70M225 70L226 71L225 70M229 70C227.993 79.1574 230.255 90.2155 239 95L230.818 81L229 70z"/>
<path style="fill:#3f959e; stroke:none;" d="M262 70L263 71L262 70z"/>
<path style="fill:#66a6ac; stroke:none;" d="M268 70L269 71L268 70z"/>
<path style="fill:#346871; stroke:none;" d="M269 70L270 71L269 70z"/>
<path style="fill:#3f959e; stroke:none;" d="M387 70L388 71L387 70z"/>
<path style="fill:#66a6ac; stroke:none;" d="M393 70L394 71L393 70z"/>
<path style="fill:#346871; stroke:none;" d="M394 70L395 71L394 70z"/>
<path style="fill:#2ee0e9; stroke:none;" d="M99 72L99 73L103 71L99 72z"/>
<path style="fill:#346871; stroke:none;" d="M263 71L263 72L269 72L263 71z"/>
<path style="fill:#66a6ac; stroke:none;" d="M367 71L368 72L367 71z"/>
<path style="fill:#346871; stroke:none;" d="M388 71L388 72L394 72L388 71z"/>
<path style="fill:#66a6ac; stroke:none;" d="M103 72L102 74L104 74L103 72z"/>
<path style="fill:#3f959e; stroke:none;" d="M159 72L159 88L160 88L159 72M179 72L179 82L180 82L179 72z"/>
<path style="fill:#66a6ac; stroke:none;" d="M368 72L369 73L368 72z"/>
<path style="fill:#3f959e; stroke:none;" d="M99 73L100 74L99 73z"/>
<path style="fill:#66a6ac; stroke:none;" d="M100 73L101 74L100 73z"/>
<path style="fill:#3f959e; stroke:none;" d="M101 73L102 74L101 73M369 73L370 74L369 73M370 74L371 75L370 74M371 75L372 76L371 75M372 76L373 77L372 76z"/>
<path style="fill:#346871; stroke:none;" d="M521.667 76.3333L522.333 76.6667L521.667 76.3333z"/>
<path style="fill:#3f959e; stroke:none;" d="M373 77L374 78L373 77z"/>
<path style="fill:#66a6ac; stroke:none;" d="M521 77L518 85L519 85L521 77z"/>
<path style="fill:#3f959e; stroke:none;" d="M522.333 77.6667L522.667 78.3333L522.333 77.6667M374 78L375 79L374 78z"/>
<path style="fill:#346871; stroke:none;" d="M519 78L518 83L519 83L521 78L519 78z"/>
<path style="fill:#3f959e; stroke:none;" d="M254 79L255 80L254 79M375 79L376 80L375 79z"/>
<path style="fill:#346871; stroke:none;" d="M520 84L524 83L524 82L521 83L524 80L520 84M160 80C160 90.3139 155.621 114.021 164 121L160 80z"/>
<path style="fill:#3f959e; stroke:none;" d="M255 80L256 81L255 80z"/>
<path style="fill:#2ee0e9; stroke:none;" d="M520 80L521 81L520 80z"/>
<path style="fill:#3f959e; stroke:none;" d="M522 80L524 82L524 80L522 80M256 81L257 82L256 81z"/>
<path style="fill:#66a6ac; stroke:none;" d="M522.333 81.6667L522.667 82.3333L522.333 81.6667z"/>
<path style="fill:#346871; stroke:none;" d="M114 82L113 83L113 84L114 85L115 85L116 84L116 83L114 82M168 82C168 99.9747 173.745 124.779 167.397 142C165.838 146.227 161.565 149.358 159 153C173.933 145.636 170 124.19 170 110L171 110C172.342 113.764 173.967 115.621 178 116L178 129L179 129L178.4 116.09L173.457 107L178.4 97.9105L179 82L178 82L178 98L171 103L170 103L168 82z"/>
<path style="fill:#66a6ac; stroke:none;" d="M179 82L179 98L180 98L179 82z"/>
<path style="fill:#3f959e; stroke:none;" d="M521 82L522 83L521 82z"/>
<path style="fill:#346871; stroke:none;" d="M343 83C346.45 87.9422 352.534 92.1476 354.436 98.0008C356.783 105.225 354 114.526 354 122L354 170C354 178.585 355.247 187.28 351 195C358.025 189.149 355 174.446 355 166C355 150.015 354.623 133.979 355.015 118C355.182 111.165 357.852 102.659 355.397 96C353.463 90.7546 347.423 86.116 343 83z"/>
<path style="fill:#3f959e; stroke:none;" d="M374 83L374 92L375 92L374 83M518 83L519 84L518 83M259 84L260 85L259 84M517 84L518 85L517 84z"/>
<path style="fill:#346871; stroke:none;" d="M519 84L520 85L519 84M516 85L516 86L519 86L516 85M114 86L114 154L115 185L116 185C113.724 175.439 115.539 165.636 115.961 156C116.6 141.391 116 126.624 116 112C116 105.864 118.762 90.161 114 86z"/>
<path style="fill:#66a6ac; stroke:none;" d="M262.667 87.3333L263.333 87.6667L262.667 87.3333z"/>
<path style="fill:#2ee0e9; stroke:none;" d="M262 88L262 89L266 90L265 87L262 88z"/>
<path style="fill:#3f959e; stroke:none;" d="M265 87L266 90L267 90L265 87z"/>
<path style="fill:#346871; stroke:none;" d="M266 87L267 88L266 87z"/>
<path style="fill:#66a6ac; stroke:none;" d="M159 88L159 119L160 119L159 88z"/>
<path style="fill:#3f959e; stroke:none;" d="M552 88L553 89L552 88z"/>
<path style="fill:#2ee0e9; stroke:none;" d="M559 93C555.299 82.9397 547.574 96.2724 559 93z"/>
<path style="fill:#3f959e; stroke:none;" d="M557 88L558 89L557 88z"/>
<path style="fill:#66a6ac; stroke:none;" d="M262 89L262 90L265 90L262 89z"/>
<path style="fill:#346871; stroke:none;" d="M284 89C281.966 116.707 287.181 146.977 281 174L282 174L284 172L285 172L285 113L284 89M551 89L552 90L551 89M558 89L559 92L560 92L558 89z"/>
<path style="fill:#3f959e; stroke:none;" d="M551 90L552 91L551 90z"/>
<path style="fill:#66a6ac; stroke:none;" d="M558 90L559 91L558 90M374 92L374 119L375 119L374 92M551 92L552 93L551 92z"/>
<path style="fill:#3f959e; stroke:none;" d="M168 93L168 99L169 99L168 93z"/>
<path style="fill:#346871; stroke:none;" d="M551 93L552 94L551 93z"/>
<path style="fill:#3f959e; stroke:none;" d="M558 93L559 94L558 93z"/>
<path style="fill:#346871; stroke:none;" d="M552 94L552 95L559 95L552 94z"/>
<path style="fill:#3f959e; stroke:none;" d="M238 95L239 96L238 95z"/>
<path style="fill:#346871; stroke:none;" d="M92 96L92 128L93 128L92 96M180 96L185.623 107L180 119L181 119C186.606 109.637 193.976 103.546 180 96M238 96L248 109L238 96M303 96L305 98L303 96z"/>
<path style="fill:#66a6ac; stroke:none;" d="M304 96L305 97L304 96z"/>
<path style="fill:#2ee0e9; stroke:none;" d="M179 98C174.579 106.959 174.339 107.041 179 116L180 116C184.39 107.562 185.75 105.796 179 98z"/>
<path style="fill:#66a6ac; stroke:none;" d="M168 99L168 104L169 104L168 99z"/>
<path style="fill:#3f959e; stroke:none;" d="M178 99L174 104L178 99M180 99L185 104L180 99z"/>
<path style="fill:#346871; stroke:none;" d="M538 99L538 120L539 120L538 99M230.333 102.667L230.667 103.333L230.333 102.667M436 103C431.372 112.616 434.874 124.77 434.996 135C435.29 159.659 435 184.339 435 209C435 217.923 431.617 234.851 439 241C433.773 231.498 436 218.598 436 208L436 137C436 128.594 432.521 110.592 438 104L436 103M35 104L36 105L35 104M126 104C126 128.289 125 152.642 125 177C125 188.197 127.42 202.569 123 213L128 214L128 213L124 213L124 212L128 212C122.28 187.976 127 157.71 127 133C127 124.466 129.306 111.879 126 104z"/>
<path style="fill:#3f959e; stroke:none;" d="M168 104L169 105L168 104M173 104L173 110L174 110L173 104M185 104L182 113C185.691 110.965 186.624 107.916 185 104z"/>
<path style="fill:#66a6ac; stroke:none;" d="M168 105L168 108L169 108L168 105z"/>
<path style="fill:#3f959e; stroke:none;" d="M168 108L169 109L168 108z"/>
<path style="fill:#66a6ac; stroke:none;" d="M168 109L168 114L169 114L168 109z"/>
<path style="fill:#3f959e; stroke:none;" d="M247 109L248 110L247 109z"/>
<path style="fill:#346871; stroke:none;" d="M96 110L97 111L96 110z"/>
<path style="fill:#3f959e; stroke:none;" d="M174 110L177 113L174 110z"/>
<path style="fill:#346871; stroke:none;" d="M247.667 110.333L248.333 110.667L247.667 110.333M31 111L32 112L31 111z"/>
<path style="fill:#3f959e; stroke:none;" d="M248 111L249 112L248 111z"/>
<path style="fill:#346871; stroke:none;" d="M29 112L28 144L29 144L29 112M249 112C251.053 119.759 252.23 127.377 249 135L254 136L249 136L249 137L255 137C253.449 129.446 254.954 117.254 249 112z"/>
<path style="fill:#3f959e; stroke:none;" d="M355 112L355 136L356 136L355 112z"/>
<path style="fill:#346871; stroke:none;" d="M373 112L373 120L374 120L373 112z"/>
<path style="fill:#3f959e; stroke:none;" d="M177 113L179 115L179 113L177 113M180 113L180 115L182 113L180 113M168 114L168 128L169 128L168 114z"/>
<path style="fill:#66a6ac; stroke:none;" d="M179 116L179 134L180 134L179 116z"/>
<path style="fill:#346871; stroke:none;" d="M156 120L159 119L156 120z"/>
<path style="fill:#3f959e; stroke:none;" d="M160 118L161 119L160 118M157 119L156 121L157 119z"/>
<path style="fill:#2ee0e9; stroke:none;" d="M156 123L163 124C162.143 118.87 158.451 118.566 156 123z"/>
<path style="fill:#3f959e; stroke:none;" d="M374 119L375 120L374 119z"/>
<path style="fill:#346871; stroke:none;" d="M371 120L370 122L371 120z"/>
<path style="fill:#3f959e; stroke:none;" d="M372 120L370 124L371 124L372 120z"/>
<path style="fill:#2ee0e9; stroke:none;" d="M371 126L378 125C375.491 120.08 371.883 120.484 371 126z"/>
<path style="fill:#66a6ac; stroke:none;" d="M375 120L377 122L375 120z"/>
<path style="fill:#346871; stroke:none;" d="M376 120L377 121L376 120z"/>
<path style="fill:#3f959e; stroke:none;" d="M538 120L538 128L539 128L538 120z"/>
<path style="fill:#346871; stroke:none;" d="M155 121L156 125L157 125L155 121z"/>
<path style="fill:#3f959e; stroke:none;" d="M163 121L157 124L157 125C160.061 124.9 163.867 124.86 163 121z"/>
<path style="fill:#346871; stroke:none;" d="M377 121L378 122L377 121z"/>
<path style="fill:#3f959e; stroke:none;" d="M377 122L378 123L377 122z"/>
<path style="fill:#66a6ac; stroke:none;" d="M156 123L157 124L156 123z"/>
<path style="fill:#346871; stroke:none;" d="M163 124L164 125L163 124M237 127L238 127L240 125L237 127z"/>
<path style="fill:#66a6ac; stroke:none;" d="M370 124L371 125L370 124M238 125L238 127L240 127L240 125L238 125z"/>
<path style="fill:#3f959e; stroke:none;" d="M370 125L371 126L370 125M377 125L378 126L377 125z"/>
<path style="fill:#346871; stroke:none;" d="M371 126L371 127L378 127L371 126z"/>
<path style="fill:#3f959e; stroke:none;" d="M238.667 127.333L239.333 127.667L238.667 127.333z"/>
<path style="fill:#346871; stroke:none;" d="M8 128L9 263L10 263L10 168C10 156.571 13.4506 138.252 8 128z"/>
<path style="fill:#3f959e; stroke:none;" d="M92 128L92 152L93 152L92 128M434 128L434 233L435 233L435 160L434 128z"/>
<path style="fill:#66a6ac; stroke:none;" d="M538 128L538 193L539 193L539 149L538 128z"/>
<path style="fill:#346871; stroke:none;" d="M178 130L177 135L178 135L178 130M300 131C300 148.941 302.334 171.904 297 189L294 191L289 192L289 193L291 194L292 191C295.899 190.907 299.588 189.108 300.682 184.96C303.631 173.776 301 158.574 301 147C301 141.92 301.981 135.72 300 131M180 133L183 138L184 138L180 133z"/>
<path style="fill:#66a6ac; stroke:none;" d="M250 136L254 136L253 133L250 136z"/>
<path style="fill:#3f959e; stroke:none;" d="M178 134L179 135L178 134z"/>
<path style="fill:#2ee0e9; stroke:none;" d="M176 139L183 139C181.467 134.195 177.533 134.195 176 139z"/>
<path style="fill:#3f959e; stroke:none;" d="M180 134L181 135L180 134z"/>
<path style="fill:#2ee0e9; stroke:none;" d="M251.667 134.333L252.333 134.667L251.667 134.333z"/>
<path style="fill:#3f959e; stroke:none;" d="M176 135L177 136L176 135M249 135L250 136L249 135z"/>
<path style="fill:#346871; stroke:none;" d="M52 136L52 184L54 184L53 153L52 136M175 136L176 137L175 136M214 136L214 140L215 140L214 136z"/>
<path style="fill:#66a6ac; stroke:none;" d="M355 136L355 192L356 192L356 154L355 136z"/>
<path style="fill:#346871; stroke:none;" d="M381.667 136.333L382.333 136.667L381.667 136.333M393 136L392 179L390.972 200L358 235C363.939 233.492 370.972 227.021 372 221L373 220C379.411 218.905 389.142 208.754 392.227 203C394.67 198.444 392.998 190.094 393 185C393.005 170.779 398.594 149.331 393 136M474 136L475 196L476 229L477 229L475.17 153L474 136z"/>
<path style="fill:#3f959e; stroke:none;" d="M175.333 137.667L175.667 138.333L175.333 137.667M183 138L180 139L180 140L184 139L183 138z"/>
<path style="fill:#346871; stroke:none;" d="M175 139L175 140L183 141L183 140L175 139z"/>
<path style="fill:#66a6ac; stroke:none;" d="M176 139L177 140L176 139z"/>
<path style="fill:#3f959e; stroke:none;" d="M177 139L178 140L177 139z"/>
<path style="fill:#346871; stroke:none;" d="M183 139L184 140L183 139z"/>
<path style="fill:#3f959e; stroke:none;" d="M214 140L215 141L214 140z"/>
<path style="fill:#346871; stroke:none;" d="M213 141L213 147L214 147L213 141z"/>
<path style="fill:#66a6ac; stroke:none;" d="M214 141L213 150L214 150L214 141z"/>
<path style="fill:#346871; stroke:none;" d="M453 141L453 159L454 159L453 141z"/>
<path style="fill:#3f959e; stroke:none;" d="M547 141L546 143L547 141z"/>
<path style="fill:#66a6ac; stroke:none;" d="M547 142L549 144L547 142z"/>
<path style="fill:#346871; stroke:none;" d="M548 142L550 144L550 142L548 142z"/>
<path style="fill:#66a6ac; stroke:none;" d="M545 143L546 144L545 143z"/>
<path style="fill:#2ee0e9; stroke:none;" d="M545 144L545 145L549 145L545 144z"/>
<path style="fill:#3f959e; stroke:none;" d="M28 144L28 184L29 184C29 172.566 32.411 154.512 28 144M284 144L284 168L285 168L284 144z"/>
<path style="fill:#346871; stroke:none;" d="M316 144L316.001 201L316 227L317 227L318 199L318 144L316 144M412 144L411 188L410 219L413 219C408.884 201.71 413 181.64 413 164C413 157.846 414.395 149.707 412 144z"/>
<path style="fill:#3f959e; stroke:none;" d="M544 144L547 146L547 145L544 144M549 144L548 146L549 144z"/>
<path style="fill:#346871; stroke:none;" d="M544 145L545 146L544 145M547 145L548 146L547 145M549 145L550 146L549 145z"/>
<path style="fill:#3f959e; stroke:none;" d="M213.333 147.667L213.667 148.333L213.333 147.667M164 148L165 149L164 148z"/>
<path style="fill:#346871; stroke:none;" d="M215 148C217.14 152.117 216.91 153.899 215 158C219.745 155.383 219.745 150.617 215 148M211 149C209.995 152.527 209.771 154.906 213 157L213 149L211 149z"/>
<path style="fill:#2ee0e9; stroke:none;" d="M214 149L214 157C217.001 154.129 216.93 151.88 214 149z"/>
<path style="fill:#3f959e; stroke:none;" d="M215 149L216 150L215 149M162 150L163 151L162 150M212 150L213 151L212 150M216 150L217 151L216 150M211 151L211 155L212 155L211 151M217 151L217 155L218 155L217 151z"/>
<path style="fill:#66a6ac; stroke:none;" d="M92 152L92 219L93 219L93 173L92 152z"/>
<path style="fill:#3f959e; stroke:none;" d="M157.333 153.667L157.667 154.333L157.333 153.667z"/>
<path style="fill:#66a6ac; stroke:none;" d="M158.333 153.667L158.667 154.333L158.333 153.667z"/>
<path style="fill:#3f959e; stroke:none;" d="M159 153L160 154L159 153z"/>
<path style="fill:#346871; stroke:none;" d="M72 155L72 162L73 162L72 155M153 159C155.16 168.072 155.195 180.232 152 189L156 189L156 190L152 190L152 191L157 191C154.259 182.215 151.425 162.685 159 156L153 159z"/>
<path style="fill:#3f959e; stroke:none;" d="M212 155L213 156L212 155M215.667 155.333L216.333 155.667L215.667 155.333M213 156L214 161L215 161L213 156z"/>
<path style="fill:#66a6ac; stroke:none;" d="M214 157L214 160L215 160L214 157z"/>
<path style="fill:#3f959e; stroke:none;" d="M474 157L474 176L475 176L474 157M154 158L155 159L154 158M453 159L453 168L454 168L453 159M115 160L115 184L116 184L115 160z"/>
<path style="fill:#346871; stroke:none;" d="M212 160L212 163L213 163L212 160z"/>
<path style="fill:#66a6ac; stroke:none;" d="M213 160L214 161L213 160z"/>
<path style="fill:#346871; stroke:none;" d="M136 161L136 195L137 195L136 161M210 161L210 164L211 164L210 161z"/>
<path style="fill:#66a6ac; stroke:none;" d="M210 163L213 162L210 163z"/>
<path style="fill:#3f959e; stroke:none;" d="M72 162L72 167L73 167L72 162M211 162L212 163L211 162z"/>
<path style="fill:#66a6ac; stroke:none;" d="M208.667 163.333L209.333 163.667L208.667 163.333z"/>
<path style="fill:#346871; stroke:none;" d="M192 175L209 165C203.702 163.499 195.157 171.18 192 175z"/>
<path style="fill:#3f959e; stroke:none;" d="M207 164L208 165L207 164z"/>
<path style="fill:#346871; stroke:none;" d="M73.3333 166.667L73.6667 167.333L73.3333 166.667M294.667 166.333L295.333 166.667L294.667 166.333z"/>
<path style="fill:#66a6ac; stroke:none;" d="M72 167L72 172L73 172L72 167M453 168L453 280L454 280L454 202L453 168z"/>
<path style="fill:#3f959e; stroke:none;" d="M284 169L285 170L284 169z"/>
<path style="fill:#66a6ac; stroke:none;" d="M283 170L284 171L283 170z"/>
<path style="fill:#346871; stroke:none;" d="M73 171L76 173L76 172L73 171z"/>
<path style="fill:#3f959e; stroke:none;" d="M282.667 171.333L283.333 171.667L282.667 171.333z"/>
<path style="fill:#346871; stroke:none;" d="M70 172L68 178L69 178L70 172z"/>
<path style="fill:#3f959e; stroke:none;" d="M71 172L72 173L71 172z"/>
<path style="fill:#2ee0e9; stroke:none;" d="M72.1736 173.176C68.7567 173.687 69.4315 178.994 72.9606 178.534C76.5808 178.062 75.6526 172.656 72.1736 173.176z"/>
<path style="fill:#3f959e; stroke:none;" d="M73 172L74 173L73 172z"/>
<path style="fill:#66a6ac; stroke:none;" d="M271 180L282 173L271 180z"/>
<path style="fill:#3f959e; stroke:none;" d="M75 173L76 174L75 173z"/>
<path style="fill:#346871; stroke:none;" d="M278 173L279 174L278 173z"/>
<path style="fill:#3f959e; stroke:none;" d="M280 173L281 174L280 173M69 174L70 175L69 174z"/>
<path style="fill:#346871; stroke:none;" d="M76 174L77 175L76 174z"/>
<path style="fill:#3f959e; stroke:none;" d="M277 174L278 175L277 174z"/>
<path style="fill:#346871; stroke:none;" d="M279 174L280 175L279 174z"/>
<path style="fill:#3f959e; stroke:none;" d="M76.3333 175.667L76.6667 176.333L76.3333 175.667z"/>
<path style="fill:#346871; stroke:none;" d="M176 319L177 319L176 287L176 228L176.063 188.73L192 176C176.585 173.763 173.879 191.495 174.004 202C174.309 227.611 175 253.313 175 279C175 291.419 172.477 307.083 176 319M275 175L276 176L275 175M278 175L279 176L278 175z"/>
<path style="fill:#3f959e; stroke:none;" d="M393 175L393 200L394 200L393 175M274 176L275 177L274 176z"/>
<path style="fill:#346871; stroke:none;" d="M276 176L277 177L276 176z"/>
<path style="fill:#66a6ac; stroke:none;" d="M474 176L474 228L475 228L475 193L474 176M69 177L70 178L69 177z"/>
<path style="fill:#346871; stroke:none;" d="M76 177L74 179L74 180L76 177M272 177L273 178L272 177M275 177L276 178L275 177z"/>
<path style="fill:#3f959e; stroke:none;" d="M69 178L70 179L69 178M75 178L76 179L75 178z"/>
<path style="fill:#346871; stroke:none;" d="M271 178L272 179L271 178M273 178L274 179L273 178M69.6667 179.333L70.3333 179.667L69.6667 179.333z"/>
<path style="fill:#3f959e; stroke:none;" d="M71 179L71 180L74 180L71 179z"/>
<path style="fill:#346871; stroke:none;" d="M269 179L269 182L270 182L269 179z"/>
<path style="fill:#3f959e; stroke:none;" d="M270.333 179.667L270.667 180.333L270.333 179.667z"/>
<path style="fill:#346871; stroke:none;" d="M272 179L273 180L272 179z"/>
<path style="fill:#66a6ac; stroke:none;" d="M269 180L270 181L269 180z"/>
<path style="fill:#346871; stroke:none;" d="M266 181L266 184L267 184L266 181z"/>
<path style="fill:#3f959e; stroke:none;" d="M267.333 181.667L267.667 182.333L267.333 181.667z"/>
<path style="fill:#66a6ac; stroke:none;" d="M268 181L269 182L268 181z"/>
<path style="fill:#346871; stroke:none;" d="M334 181L333 211L333 268L335 268L335 208L334 181z"/>
<path style="fill:#66a6ac; stroke:none;" d="M266 182L267 183L266 182M264 183L259 188L264 183z"/>
<path style="fill:#3f959e; stroke:none;" d="M265 183L266 184L265 183z"/>
<path style="fill:#66a6ac; stroke:none;" d="M28 184L28 233L29 233C29 219.212 33.309 196.652 28 184z"/>
<path style="fill:#346871; stroke:none;" d="M29 184L29 222C29 227.759 27.7705 233.426 33 237C24.2643 221.12 35.7424 200.068 29 184z"/>
<path style="fill:#3f959e; stroke:none;" d="M52 184L52 256L53 256L53 207L52 184M114 184L113 187L117 187L114 184z"/>
<path style="fill:#346871; stroke:none;" d="M262 184L263 185L262 184M264 184L265 185L264 184z"/>
<path style="fill:#3f959e; stroke:none;" d="M412 184L412 208L413 208L412 184z"/>
<path style="fill:#346871; stroke:none;" d="M539 184L540 197L541 197L539 184M260 185L261 186L260 185M263 185L264 186L263 185M112 186L110 190L111 190L112 186z"/>
<path style="fill:#2ee0e9; stroke:none;" d="M111 192L119 191C116.792 185.245 112.206 186.353 111 192z"/>
<path style="fill:#346871; stroke:none;" d="M117 186L118 187L117 186M259 186L260 187L259 186z"/>
<path style="fill:#3f959e; stroke:none;" d="M261 186L262 187L261 186z"/>
<path style="fill:#346871; stroke:none;" d="M262 186L263 187L262 186z"/>
<path style="fill:#3f959e; stroke:none;" d="M299 186L298 188L299 186z"/>
<path style="fill:#346871; stroke:none;" d="M118 187L120 189L118 187M257 187L254 192L255 192L258 190L257 187z"/>
<path style="fill:#3f959e; stroke:none;" d="M258.333 187.667L258.667 188.333L258.333 187.667z"/>
<path style="fill:#346871; stroke:none;" d="M260 187L261 188L260 187z"/>
<path style="fill:#66a6ac; stroke:none;" d="M111 188L112 189L111 188z"/>
<path style="fill:#3f959e; stroke:none;" d="M118 188L119 189L118 188M153 188L154 189L153 188z"/>
<path style="fill:#66a6ac; stroke:none;" d="M152 189L152 190L156 190L152 189M257 188L258 189L257 188z"/>
<path style="fill:#346871; stroke:none;" d="M259 188L260 189L259 188z"/>
<path style="fill:#3f959e; stroke:none;" d="M296 188L297 189L296 188M119.333 189.667L119.667 190.333L119.333 189.667z"/>
<path style="fill:#66a6ac; stroke:none;" d="M256 189L257 190L256 189z"/>
<path style="fill:#3f959e; stroke:none;" d="M295 189L296 190L295 189M110.333 190.667L110.667 191.333L110.333 190.667M254 190L255 191L254 190z"/>
<path style="fill:#66a6ac; stroke:none;" d="M255 190L256 191L255 190z"/>
<path style="fill:#3f959e; stroke:none;" d="M293 190L294 191L293 190M114 191L115 192L114 191z"/>
<path style="fill:#66a6ac; stroke:none;" d="M118 191L119 192L118 191z"/>
<path style="fill:#346871; stroke:none;" d="M119 191L120 192L119 191z"/>
<path style="fill:#3f959e; stroke:none;" d="M252 191L253 192L252 191z"/>
<path style="fill:#66a6ac; stroke:none;" d="M253 191L254 192L253 191M292 191L293 192L292 191z"/>
<path style="fill:#346871; stroke:none;" d="M53 192L54 193L53 192M112 192L112 193L119 193L112 192M250 192L250 195L251 195L250 192z"/>
<path style="fill:#66a6ac; stroke:none;" d="M251.667 192.333L252.333 192.667L251.667 192.333M290 192L291 193L290 192z"/>
<path style="fill:#3f959e; stroke:none;" d="M353 194L356 193L353 194z"/>
<path style="fill:#346871; stroke:none;" d="M356 192L357 193L356 192M494 192L494 208L495 208L494 192M522 192L521 223L522 289L523 289L523 222L522 192M537 192L537 199L538 199L537 192z"/>
<path style="fill:#3f959e; stroke:none;" d="M249.333 193.667L249.667 194.333L249.333 193.667z"/>
<path style="fill:#66a6ac; stroke:none;" d="M250 193L251 194L250 193M288 193L287 195L288 193z"/>
<path style="fill:#3f959e; stroke:none;" d="M289 193L290 194L289 193z"/>
<path style="fill:#2ee0e9; stroke:none;" d="M352 197L359 197C356.932 193.283 353.568 192.559 352 197z"/>
<path style="fill:#3f959e; stroke:none;" d="M357 193L359 195L357 193z"/>
<path style="fill:#346871; stroke:none;" d="M358 193L359 194L358 193z"/>
<path style="fill:#2ee0e9; stroke:none;" d="M538 193L538 197L539 197L538 193z"/>
<path style="fill:#346871; stroke:none;" d="M247 194L246 195L246 196L247 197L248 197L249 196L249 195L247 194z"/>
<path style="fill:#66a6ac; stroke:none;" d="M248 194L249 195L248 194z"/>
<path style="fill:#346871; stroke:none;" d="M286 194L288 196L286 194M288 194L289 195L288 194z"/>
<path style="fill:#3f959e; stroke:none;" d="M537 194L538 195L537 194z"/>
<path style="fill:#66a6ac; stroke:none;" d="M539 194L540 195L539 194z"/>
<path style="fill:#3f959e; stroke:none;" d="M136 195L137 196L136 195z"/>
<path style="fill:#66a6ac; stroke:none;" d="M247 195L248 196L247 195z"/>
<path style="fill:#346871; stroke:none;" d="M284 195L283 196L283 197L284 198L285 198L286 197L286 196L284 195z"/>
<path style="fill:#3f959e; stroke:none;" d="M285.667 195.333L286.333 195.667L285.667 195.333M351 195L352 196L351 195z"/>
<path style="fill:#346871; stroke:none;" d="M359 195L359 198L360 198L359 195z"/>
<path style="fill:#66a6ac; stroke:none;" d="M537.333 195.667L537.667 196.333L537.333 195.667z"/>
<path style="fill:#346871; stroke:none;" d="M137 196C140.337 203.156 149.142 212.073 156 216C154.298 209.94 146.264 201.072 140 200L137 196M238 196L238 197L244 199L237 200L237 201C241.177 200.864 243.786 200.283 245 196L238 196z"/>
<path style="fill:#66a6ac; stroke:none;" d="M245 196L244 198L245 196z"/>
<path style="fill:#3f959e; stroke:none;" d="M246 196L247 197L246 196z"/>
<path style="fill:#66a6ac; stroke:none;" d="M284 196L285 197L284 196M351 196L352 197L351 196M539 196L538 220L539 220L539 196z"/>
<path style="fill:#346871; stroke:none;" d="M236 197L237 198L236 197z"/>
<path style="fill:#3f959e; stroke:none;" d="M237 197L236 200L237 200L237 197z"/>
<path style="fill:#66a6ac; stroke:none;" d="M238 197L237 200L238 200L238 197z"/>
<path style="fill:#2ee0e9; stroke:none;" d="M238 198L238 199L243 199L238 198z"/>
<path style="fill:#66a6ac; stroke:none;" d="M241 197L242 198L241 197z"/>
<path style="fill:#3f959e; stroke:none;" d="M245 197L246 198L245 197z"/>
<path style="fill:#346871; stroke:none;" d="M266 197L266 199L268 199L268 197L266 197M281 197L281 200L282 200L281 197z"/>
<path style="fill:#3f959e; stroke:none;" d="M282.667 197.333L283.333 197.667L282.667 197.333z"/>
<path style="fill:#346871; stroke:none;" d="M351 197L352 198L351 197z"/>
<path style="fill:#3f959e; stroke:none;" d="M352 197L352 198L359 198L352 197M539 197L540 198L539 197z"/>
<path style="fill:#66a6ac; stroke:none;" d="M243 198L244 199L243 198z"/>
<path style="fill:#3f959e; stroke:none;" d="M280 198L280 200L282 198L280 198z"/>
<path style="fill:#346871; stroke:none;" d="M539 198L540 221L541 221L539 198z"/>
<path style="fill:#3f959e; stroke:none;" d="M140 199L141 200L140 199M238.667 199.333L239.333 199.667L238.667 199.333z"/>
<path style="fill:#66a6ac; stroke:none;" d="M240 199L240 200L243 200L240 199z"/>
<path style="fill:#346871; stroke:none;" d="M278 199L280 201L278 199z"/>
<path style="fill:#66a6ac; stroke:none;" d="M279 199L280 200L279 199z"/>
<path style="fill:#346871; stroke:none;" d="M53 200L53 297L54 297L54 230L53 200z"/>
<path style="fill:#3f959e; stroke:none;" d="M277.667 200.333L278.333 200.667L277.667 200.333z"/>
<path style="fill:#66a6ac; stroke:none;" d="M393 200L394 201L393 200z"/>
<path style="fill:#346871; stroke:none;" d="M275 201L275 202L278 202L278 201L275 201z"/>
<path style="fill:#66a6ac; stroke:none;" d="M276 201L277 202L276 201M392 201L374 220C379.659 216.014 390.341 207.843 392 201z"/>
<path style="fill:#346871; stroke:none;" d="M273 202L273 205L274 205L273 202z"/>
<path style="fill:#3f959e; stroke:none;" d="M273 204L276 202L273 204M144 203L145 204L144 203z"/>
<path style="fill:#346871; stroke:none;" d="M194 203L194 205L196 205L196 203L194 203M270 204L269 205L269 206L270 207L271 207L272 206L272 205L270 204z"/>
<path style="fill:#3f959e; stroke:none;" d="M271.667 204.333L272.333 204.667L271.667 204.333M270 205L271 206L270 205z"/>
<path style="fill:#346871; stroke:none;" d="M199 206L200 207L199 206M267 206L269 208L267 206z"/>
<path style="fill:#3f959e; stroke:none;" d="M268.667 206.333L269.333 206.667L268.667 206.333M266.333 207.667L266.667 208.333L266.333 207.667z"/>
<path style="fill:#66a6ac; stroke:none;" d="M267 207L268 208L267 207z"/>
<path style="fill:#3f959e; stroke:none;" d="M8 208L8 249L10 264C5.89991 246.779 14.7716 224.138 8 208M174 208L174 305L175 305L175 238L174 208z"/>
<path style="fill:#346871; stroke:none;" d="M223 208L223 327L224 327L225 298L225 242L223 208M264 208L266 210L264 208z"/>
<path style="fill:#66a6ac; stroke:none;" d="M265 208L266 209L265 208z"/>
<path style="fill:#3f959e; stroke:none;" d="M316 208L315 226L316 226L316 208z"/>
<path style="fill:#66a6ac; stroke:none;" d="M412 208L412 216L413 216L412 208z"/>
<path style="fill:#3f959e; stroke:none;" d="M494 208L494 232L495 232L494 208z"/>
<path style="fill:#346871; stroke:none;" d="M262 209L262 212L263 212L262 209z"/>
<path style="fill:#3f959e; stroke:none;" d="M263 209L262 211L264 211L263 209z"/>
<path style="fill:#66a6ac; stroke:none;" d="M264 209L265 210L264 209M125 211L128 213L125 211z"/>
<path style="fill:#3f959e; stroke:none;" d="M152 211L153 212L152 211z"/>
<path style="fill:#346871; stroke:none;" d="M259 211L258 212L258 213L259 214L260 214L261 213L261 212L259 211z"/>
<path style="fill:#3f959e; stroke:none;" d="M260.667 211.333L261.333 211.667L260.667 211.333M124 212L125 213L124 212z"/>
<path style="fill:#66a6ac; stroke:none;" d="M259 212L260 213L259 212z"/>
<path style="fill:#346871; stroke:none;" d="M255 214L255 215L258 215L255 214z"/>
<path style="fill:#3f959e; stroke:none;" d="M257.667 213.333L258.333 213.667L257.667 213.333z"/>
<path style="fill:#66a6ac; stroke:none;" d="M256 214L257 215L256 214z"/>
<path style="fill:#346871; stroke:none;" d="M253 215L255 217L253 215z"/>
<path style="fill:#3f959e; stroke:none;" d="M254 215L255 216L254 215z"/>
<path style="fill:#66a6ac; stroke:none;" d="M255 215L256 216L255 215z"/>
<path style="fill:#3f959e; stroke:none;" d="M155 216L155 240L156 240L155 216z"/>
<path style="fill:#346871; stroke:none;" d="M199 216L199 288L200 288L200 239L199 216z"/>
<path style="fill:#3f959e; stroke:none;" d="M252.333 216.667L252.667 217.333L252.333 216.667z"/>
<path style="fill:#66a6ac; stroke:none;" d="M253 216L254 217L253 216z"/>
<path style="fill:#3f959e; stroke:none;" d="M412 216L413 217L412 216z"/>
<path style="fill:#346871; stroke:none;" d="M250 217L252 219L250 217z"/>
<path style="fill:#66a6ac; stroke:none;" d="M251 217L252 218L251 217M412 217L413 218L412 217z"/>
<path style="fill:#346871; stroke:none;" d="M91 218L92 219L91 218M93 218L96 220L96 219L93 218M248 218L247 219L247 220L248 221L249 221L250 220L250 219L248 218z"/>
<path style="fill:#3f959e; stroke:none;" d="M249.667 218.333L250.333 218.667L249.667 218.333z"/>
<path style="fill:#66a6ac; stroke:none;" d="M411 218L412 219L411 218z"/>
<path style="fill:#346871; stroke:none;" d="M89 219L90 220L89 219z"/>
<path style="fill:#3f959e; stroke:none;" d="M89 221L92 220L89 221z"/>
<path style="fill:#2ee0e9; stroke:none;" d="M90 222L96 222C93.6381 219.933 92.0203 219.354 90 222z"/>
<path style="fill:#3f959e; stroke:none;" d="M93 219L94 220L93 219z"/>
<path style="fill:#66a6ac; stroke:none;" d="M248 219L249 220L248 219z"/>
<path style="fill:#3f959e; stroke:none;" d="M410 219L410 221L412 219L410 219z"/>
<path style="fill:#346871; stroke:none;" d="M537 219L536 223L537 223L537 219z"/>
<path style="fill:#3f959e; stroke:none;" d="M95 220L96 221L95 220z"/>
<path style="fill:#346871; stroke:none;" d="M245 220L245 223L246 223L245 220z"/>
<path style="fill:#3f959e; stroke:none;" d="M246.333 220.667L246.667 221.333L246.333 220.667z"/>
<path style="fill:#66a6ac; stroke:none;" d="M247 220L248 221L247 220M373 220L372 222L373 220M409 220L408 222L409 220z"/>
<path style="fill:#2ee0e9; stroke:none;" d="M538 220L538 225L539 225L538 220z"/>
<path style="fill:#3f959e; stroke:none;" d="M539 220L540 221L539 220z"/>
<path style="fill:#346871; stroke:none;" d="M88 221L89 222L88 221z"/>
<path style="fill:#66a6ac; stroke:none;" d="M89 221L89 223L91 223L89 221z"/>
<path style="fill:#346871; stroke:none;" d="M96 221L88 223L88 224C90.6161 224 97.5413 225.089 96 221z"/>
<path style="fill:#66a6ac; stroke:none;" d="M245 221L246 222L245 221z"/>
<path style="fill:#3f959e; stroke:none;" d="M373 221L374 222L373 221z"/>
<path style="fill:#346871; stroke:none;" d="M409 221L410 222L409 221z"/>
<path style="fill:#3f959e; stroke:none;" d="M537 221L537 224L538 224L537 221M540.333 221.667L540.667 222.333L540.333 221.667M88 222L89 223L88 222M92 222L93 223L92 222z"/>
<path style="fill:#66a6ac; stroke:none;" d="M95 222L96 223L95 222z"/>
<path style="fill:#346871; stroke:none;" d="M242 222L244 224L242 222z"/>
<path style="fill:#66a6ac; stroke:none;" d="M243.667 222.333L244.333 222.667L243.667 222.333M371 222L360 234L371 222z"/>
<path style="fill:#346871; stroke:none;" d="M406 222L406 224L408 222L406 222z"/>
<path style="fill:#3f959e; stroke:none;" d="M408 222L409 223L408 222M241 223L242 224L241 223z"/>
<path style="fill:#66a6ac; stroke:none;" d="M242 223L243 224L242 223M407 223L408 224L407 223M539 223L540 224L539 223z"/>
<path style="fill:#346871; stroke:none;" d="M540 223L541 224L540 223M154 224L154 279L155 279L155 242L154 224M239 224L239 225L242 225L242 224L239 224z"/>
<path style="fill:#66a6ac; stroke:none;" d="M240 224L241 225L240 224M405 224L400 230L405 224z"/>
<path style="fill:#3f959e; stroke:none;" d="M406 224L407 225L406 224z"/>
<path style="fill:#346871; stroke:none;" d="M537 224L538 225L537 224M539 224L539 240L540 240L539 224M237 225L235 292L236 292L237 276L237 242L239 227L237 225z"/>
<path style="fill:#3f959e; stroke:none;" d="M238 225L239 226L238 225z"/>
<path style="fill:#66a6ac; stroke:none;" d="M239 225L240 226L239 225z"/>
<path style="fill:#346871; stroke:none;" d="M299.667 225.333L300.333 225.667L299.667 225.333z"/>
<path style="fill:#66a6ac; stroke:none;" d="M316 225L317 226L316 225z"/>
<path style="fill:#3f959e; stroke:none;" d="M405 225L406 226L405 225z"/>
<path style="fill:#66a6ac; stroke:none;" d="M538 225L538 254L539 254L538 225M237.333 226.667L237.667 227.333L237.333 226.667z"/>
<path style="fill:#346871; stroke:none;" d="M313 226L313 229L314 229L313 226z"/>
<path style="fill:#66a6ac; stroke:none;" d="M314.667 226.333L315.333 226.667L314.667 226.333z"/>
<path style="fill:#3f959e; stroke:none;" d="M404 226L405 227L404 226M312 227L313 228L312 227z"/>
<path style="fill:#66a6ac; stroke:none;" d="M313 227L314 228L313 227z"/>
<path style="fill:#346871; stroke:none;" d="M401 227L402 228L401 227z"/>
<path style="fill:#3f959e; stroke:none;" d="M403 227L404 228L403 227M237 228L238 229L237 228z"/>
<path style="fill:#346871; stroke:none;" d="M310 228L309 229L309 230L310 231L311 231L312 230L312 229L310 228z"/>
<path style="fill:#66a6ac; stroke:none;" d="M311.667 228.333L312.333 228.667L311.667 228.333z"/>
<path style="fill:#3f959e; stroke:none;" d="M402 228L403 229L402 228z"/>
<path style="fill:#346871; stroke:none;" d="M471 230L474 229L471 230z"/>
<path style="fill:#2ee0e9; stroke:none;" d="M474.094 229.461C470.987 230.408 471.369 235.633 474.91 235.079C478.534 234.512 477.778 228.339 474.094 229.461z"/>
<path style="fill:#3f959e; stroke:none;" d="M475 228L476 229L475 228z"/>
<path style="fill:#66a6ac; stroke:none;" d="M237 229L237 291L238 291L238 249L237 229z"/>
<path style="fill:#3f959e; stroke:none;" d="M310 229L311 230L310 229z"/>
<path style="fill:#346871; stroke:none;" d="M401 229L402 230L401 229z"/>
<path style="fill:#66a6ac; stroke:none;" d="M472 229L473 230L472 229z"/>
<path style="fill:#3f959e; stroke:none;" d="M477 229L478 230L477 229z"/>
<path style="fill:#346871; stroke:none;" d="M306 231L306 232L309 232L306 231z"/>
<path style="fill:#66a6ac; stroke:none;" d="M308.667 230.333L309.333 230.667L308.667 230.333z"/>
<path style="fill:#346871; stroke:none;" d="M398 230L398 232L400 230L398 230z"/>
<path style="fill:#3f959e; stroke:none;" d="M400 230L401 231L400 230M471 230L472 231L471 230z"/>
<path style="fill:#346871; stroke:none;" d="M478 230L479 231L478 230z"/>
<path style="fill:#66a6ac; stroke:none;" d="M307 231L308 232L307 231M399 231L400 232L399 231z"/>
<path style="fill:#346871; stroke:none;" d="M470 231L471 236L472 236L470 231z"/>
<path style="fill:#3f959e; stroke:none;" d="M478 231L478 234L479 234L478 231z"/>
<path style="fill:#346871; stroke:none;" d="M304 232L304 235L305 235L304 232z"/>
<path style="fill:#66a6ac; stroke:none;" d="M305.667 232.333L306.333 232.667L305.667 232.333M397 232L392 238L397 232z"/>
<path style="fill:#3f959e; stroke:none;" d="M398 232L399 233L398 232z"/>
<path style="fill:#66a6ac; stroke:none;" d="M494 232L494 268L495 268C495 257.613 498.011 241.56 494 232z"/>
<path style="fill:#3f959e; stroke:none;" d="M28 233L29 234L28 233M303 233L302 235L304 235L303 233z"/>
<path style="fill:#66a6ac; stroke:none;" d="M304 233L305 234L304 233z"/>
<path style="fill:#3f959e; stroke:none;" d="M397 233L398 234L397 233z"/>
<path style="fill:#66a6ac; stroke:none;" d="M434.333 233.667L434.667 234.333L434.333 233.667z"/>
<path style="fill:#346871; stroke:none;" d="M27 234L28 235L27 234z"/>
<path style="fill:#66a6ac; stroke:none;" d="M28 234L29 235L28 234z"/>
<path style="fill:#346871; stroke:none;" d="M301 234L301 237L302 237L301 234z"/>
<path style="fill:#66a6ac; stroke:none;" d="M359 234L358 248L359 248L359 234z"/>
<path style="fill:#346871; stroke:none;" d="M394 234L395 235L394 234z"/>
<path style="fill:#3f959e; stroke:none;" d="M396 234L397 235L396 234M471 234L472 235L471 234z"/>
<path style="fill:#66a6ac; stroke:none;" d="M477 234L476 236L477 234z"/>
<path style="fill:#346871; stroke:none;" d="M478 234L479 235L478 234M25 235L24 237L25 235z"/>
<path style="fill:#3f959e; stroke:none;" d="M26 235L27 236L26 235z"/>
<path style="fill:#2ee0e9; stroke:none;" d="M25 239L32 239C30.4321 234.559 27.0683 235.283 25 239z"/>
<path style="fill:#3f959e; stroke:none;" d="M30 235L31 236L30 235M300.333 235.667L300.667 236.333L300.333 235.667z"/>
<path style="fill:#66a6ac; stroke:none;" d="M301 235L302 236L301 235z"/>
<path style="fill:#3f959e; stroke:none;" d="M359 235L360 236L359 235z"/>
<path style="fill:#346871; stroke:none;" d="M393 235L394 236L393 235z"/>
<path style="fill:#3f959e; stroke:none;" d="M395 235L396 236L395 235M434 235L435 236L434 235z"/>
<path style="fill:#66a6ac; stroke:none;" d="M472 235L473 236L472 235z"/>
<path style="fill:#346871; stroke:none;" d="M477 235L478 236L477 235z"/>
<path style="fill:#66a6ac; stroke:none;" d="M25 236L26 237L25 236z"/>
<path style="fill:#346871; stroke:none;" d="M298 236L300 238L298 236z"/>
<path style="fill:#66a6ac; stroke:none;" d="M299 236L300 237L299 236z"/>
<path style="fill:#3f959e; stroke:none;" d="M394 236L395 237L394 236z"/>
<path style="fill:#66a6ac; stroke:none;" d="M434 236L435 237L434 236z"/>
<path style="fill:#346871; stroke:none;" d="M473 236L473 237L477 237L473 236z"/>
<path style="fill:#3f959e; stroke:none;" d="M24 237L25 238L24 237z"/>
<path style="fill:#66a6ac; stroke:none;" d="M32 237L32 240L33 240L32 237z"/>
<path style="fill:#3f959e; stroke:none;" d="M297 237L298 238L297 237z"/>
<path style="fill:#66a6ac; stroke:none;" d="M298 237L299 238L298 237z"/>
<path style="fill:#346871; stroke:none;" d="M393 237L394 238L393 237z"/>
<path style="fill:#3f959e; stroke:none;" d="M434 237L434 239L436 239L434 237z"/>
<path style="fill:#66a6ac; stroke:none;" d="M24 238L25 239L24 238z"/>
<path style="fill:#346871; stroke:none;" d="M33 238L34 239L33 238M294 239L294 240L298 239L294 239z"/>
<path style="fill:#66a6ac; stroke:none;" d="M296 238L297 239L296 238z"/>
<path style="fill:#346871; stroke:none;" d="M390 238L390 240L392 238L390 238z"/>
<path style="fill:#3f959e; stroke:none;" d="M392 238L393 239L392 238z"/>
<path style="fill:#346871; stroke:none;" d="M433 238L434 239L433 238z"/>
<path style="fill:#3f959e; stroke:none;" d="M24 239L24 240L32 240L24 239z"/>
<path style="fill:#66a6ac; stroke:none;" d="M295 239L296 240L295 239M391 239L392 240L391 239z"/>
<path style="fill:#3f959e; stroke:none;" d="M432 239L431 241L432 239z"/>
<path style="fill:#2ee0e9; stroke:none;" d="M432 243L438 243C436.572 238.947 433.37 238.904 432 243z"/>
<path style="fill:#66a6ac; stroke:none;" d="M436 239L437 240L436 239z"/>
<path style="fill:#346871; stroke:none;" d="M25 240L25 241L31 241L25 240z"/>
<path style="fill:#66a6ac; stroke:none;" d="M155 240L155 245L156 245L155 240z"/>
<path style="fill:#346871; stroke:none;" d="M292 240L294 242L292 240z"/>
<path style="fill:#66a6ac; stroke:none;" d="M293 240L294 241L293 240z"/>
<path style="fill:#3f959e; stroke:none;" d="M294 240L295 241L294 240z"/>
<path style="fill:#346871; stroke:none;" d="M357 240L358 264L359 264L357 240z"/>
<path style="fill:#66a6ac; stroke:none;" d="M389 240L390 241L389 240z"/>
<path style="fill:#3f959e; stroke:none;" d="M390 240L391 241L390 240z"/>
<path style="fill:#346871; stroke:none;" d="M452 240L452 273L453 273L452 240M290 241L290 244L291 244L290 241z"/>
<path style="fill:#66a6ac; stroke:none;" d="M290 243L293 242L290 243z"/>
<path style="fill:#346871; stroke:none;" d="M387 241L388 242L387 241z"/>
<path style="fill:#3f959e; stroke:none;" d="M388 241L388 243L390 241L388 241z"/>
<path style="fill:#66a6ac; stroke:none;" d="M431.333 241.667L431.667 242.333L431.333 241.667z"/>
<path style="fill:#3f959e; stroke:none;" d="M438 241L436 243L436 244L438 241M291 242L292 243L291 242z"/>
<path style="fill:#66a6ac; stroke:none;" d="M387 242C382.554 250.332 385 263.691 385 273L385 345L386 345L386 271L387 242z"/>
<path style="fill:#346871; stroke:none;" d="M430 242L431 243L430 242z"/>
<path style="fill:#3f959e; stroke:none;" d="M288 243L288 245L290 243L288 243z"/>
<path style="fill:#346871; stroke:none;" d="M431.667 243.333L432.333 243.667L431.667 243.333z"/>
<path style="fill:#3f959e; stroke:none;" d="M433.667 243.333L434.333 243.667L433.667 243.333z"/>
<path style="fill:#346871; stroke:none;" d="M435 243L436 244L435 243M438 243L439 244L438 243M261 244L261 256L262 256L261 244M286 244L286 247L287 247L286 244z"/>
<path style="fill:#66a6ac; stroke:none;" d="M287 244L288 245L287 244z"/>
<path style="fill:#3f959e; stroke:none;" d="M386 244L387 245L386 244M155 245L156 246L155 245z"/>
<path style="fill:#346871; stroke:none;" d="M284 245C279.571 259.985 283 280.361 283 296L284 296L284 245z"/>
<path style="fill:#3f959e; stroke:none;" d="M285 245C280.797 262.655 283.05 285.801 283 304L285 304C285 286.038 289.143 262.249 285 245z"/>
<path style="fill:#66a6ac; stroke:none;" d="M286 245L287 246L286 245M155 246L154.436 277.829L138.028 296L137 326L138 326C138 318.054 135.606 305.557 138.603 298.17C141.492 291.051 150.543 287.092 154.566 280.576C158.384 274.392 157.765 252.59 155 246M284 246L285 247L284 246z"/>
<path style="fill:#346871; stroke:none;" d="M539 246L541 259L542 261L535 261L535 260L540 260L540 259L534 259L538 252L537 252C535.126 254.574 532.481 257.488 533.647 260.942C535.057 265.114 541.517 266.142 543.392 261.772C545.027 257.96 540.565 249.681 539 246M386 247L387 248L386 247z"/>
<path style="fill:#3f959e; stroke:none;" d="M358 248L358 252L359 252L358 248z"/>
<path style="fill:#66a6ac; stroke:none;" d="M468 248L469 249L468 248z"/>
<path style="fill:#346871; stroke:none;" d="M469 248L470 249L469 248M513 248L513 249L516 249L516 248L513 248z"/>
<path style="fill:#66a6ac; stroke:none;" d="M514 248L515 249L514 248z"/>
<path style="fill:#346871; stroke:none;" d="M468 249L469 250L468 249M553 250L554 271L555 271L553 250z"/>
<path style="fill:#3f959e; stroke:none;" d="M357 253L357 256L358 256L357 253z"/>
<path style="fill:#346871; stroke:none;" d="M495 254L496 255L495 254z"/>
<path style="fill:#3f959e; stroke:none;" d="M537 254L538 255L537 254z"/>
<path style="fill:#2ee0e9; stroke:none;" d="M535 258L542 258C539.847 254.42 537.153 254.42 535 258z"/>
<path style="fill:#3f959e; stroke:none;" d="M539 254L540 255L539 254z"/>
<path style="fill:#346871; stroke:none;" d="M390.667 255.333L391.333 255.667L390.667 255.333z"/>
<path style="fill:#3f959e; stroke:none;" d="M541 255L542 256L541 255z"/>
<path style="fill:#66a6ac; stroke:none;" d="M52 256L52 296L53 296C53 284.566 56.411 266.512 52 256z"/>
<path style="fill:#3f959e; stroke:none;" d="M261 256L261 264L262 264L261 256M333 256L334 257L333 256z"/>
<path style="fill:#66a6ac; stroke:none;" d="M357 256L357 276L358 276L357 256z"/>
<path style="fill:#3f959e; stroke:none;" d="M542 256L534 257C535.751 259.399 543.644 260.361 542 256M334 258L335 259L334 258M333 259L333 262L334 262L333 259z"/>
<path style="fill:#151d25; stroke:none;" d="M535 260L535 261L542 260L535 260z"/>
<path style="fill:#346871; stroke:none;" d="M495 260L496 270L498 269C499.74 273.896 499.998 277.375 495 280L495 288L496 288L496 282C502.249 279.915 502.932 269.407 496 268L495 260z"/>
<path style="fill:#3f959e; stroke:none;" d="M538.667 263.333L539.333 263.667L538.667 263.333z"/>
<path style="fill:#346871; stroke:none;" d="M5 264L6 265L5 264z"/>
<path style="fill:#3f959e; stroke:none;" d="M6 264L5 266L6 264z"/>
<path style="fill:#2ee0e9; stroke:none;" d="M5 267L12 268C10.5907 263.77 7.88532 264.087 5 267z"/>
<path style="fill:#3f959e; stroke:none;" d="M11 264L12 265L11 264z"/>
<path style="fill:#66a6ac; stroke:none;" d="M261 264L261 276L262 276L261 264z"/>
<path style="fill:#346871; stroke:none;" d="M493 264L488.272 275.957L493 286L494 286L490.156 274.586L493 264z"/>
<path style="fill:#3f959e; stroke:none;" d="M12 265L13 266L12 265z"/>
<path style="fill:#346871; stroke:none;" d="M4 266C4.86588 268.967 5.99196 269.287 9 269L9 268L4 266z"/>
<path style="fill:#66a6ac; stroke:none;" d="M12.3333 266.667L12.6667 267.333L12.3333 266.667z"/>
<path style="fill:#346871; stroke:none;" d="M13 266L10 268L10 269C12.348 268.706 13.951 268.507 13 266z"/>
<path style="fill:#66a6ac; stroke:none;" d="M5 267L6 268L5 267z"/>
<path style="fill:#3f959e; stroke:none;" d="M9 268L10 269L9 268M333 268L336 272L335 268L333 268z"/>
<path style="fill:#2ee0e9; stroke:none;" d="M494 268C490.791 273.834 491.527 276.174 494 282L495 282C497.956 275.725 500.081 273.214 494 268z"/>
<path style="fill:#346871; stroke:none;" d="M334 269L335 270L334 269M356 269L356 280L357 280L356 269z"/>
<path style="fill:#3f959e; stroke:none;" d="M493 269L494 270L493 269M495 269L496 270L495 269M496 270L499 272L498 269L496 270z"/>
<path style="fill:#346871; stroke:none;" d="M191 270L190 272L192 272L191 270z"/>
<path style="fill:#3f959e; stroke:none;" d="M491 270L490 278L491 278L493 270L491 270M552 271L552 272L555 272L552 271z"/>
<path style="fill:#346871; stroke:none;" d="M330 273L333 272L330 273z"/>
<path style="fill:#2ee0e9; stroke:none;" d="M331 276L338 275C335.394 271.03 331.875 270.976 331 276z"/>
<path style="fill:#66a6ac; stroke:none;" d="M553 271L554 272L553 271z"/>
<path style="fill:#346871; stroke:none;" d="M262.333 272.667L262.667 273.333L262.333 272.667M337 272L338 273L337 272z"/>
<path style="fill:#3f959e; stroke:none;" d="M499 272L499 277L500 277L499 272M521 272C521 279.783 521.851 287 518 294L524 292L521 272z"/>
<path style="fill:#346871; stroke:none;" d="M552 272L552 273L555 273L552 272z"/>
<path style="fill:#3f959e; stroke:none;" d="M330.333 273.667L330.667 274.333L330.333 273.667M337 273L338 274L337 273z"/>
<path style="fill:#346871; stroke:none;" d="M262 275L262 278L263 278L262 275M329 275L330 276L329 275z"/>
<path style="fill:#66a6ac; stroke:none;" d="M330 275L331 276L330 275M337 275L338 276L337 275z"/>
<path style="fill:#346871; stroke:none;" d="M452.333 275.667L452.667 276.333L452.333 275.667z"/>
<path style="fill:#3f959e; stroke:none;" d="M261 276L262 277L261 276M330 276L330 277L338 277L330 276M357 276L356 288L357 288L357 276z"/>
<path style="fill:#346871; stroke:none;" d="M260 277L261 278L260 277z"/>
<path style="fill:#66a6ac; stroke:none;" d="M261 277L262 278L261 277z"/>
<path style="fill:#3f959e; stroke:none;" d="M498 277L495 279L495 280L498 277z"/>
<path style="fill:#346871; stroke:none;" d="M258 278L259 279L258 278z"/>
<path style="fill:#3f959e; stroke:none;" d="M259 278L258 280L259 278z"/>
<path style="fill:#2ee0e9; stroke:none;" d="M265 284C264.2 273.729 253.477 283.622 265 284z"/>
<path style="fill:#346871; stroke:none;" d="M264 278L265 279L264 278M452 278C450.458 280.811 448.329 283.52 451 286L452 278z"/>
<path style="fill:#3f959e; stroke:none;" d="M491 278L494 280L491 278z"/>
<path style="fill:#66a6ac; stroke:none;" d="M497 278L498 279L497 278z"/>
<path style="fill:#3f959e; stroke:none;" d="M154 279L155 280L154 279z"/>
<path style="fill:#346871; stroke:none;" d="M265 279L266 280L265 279M257 280L258 285L259 285L257 280z"/>
<path style="fill:#3f959e; stroke:none;" d="M265 280L265 283L266 283L265 280M452 280L453 281L452 280z"/>
<path style="fill:#2ee0e9; stroke:none;" d="M453 280L450 284L457 284L453 280z"/>
<path style="fill:#3f959e; stroke:none;" d="M454 280L455 281L454 280z"/>
<path style="fill:#346871; stroke:none;" d="M455 280L457 285L452 285L452 286C457.078 286.39 458.867 283.8 455 280z"/>
<path style="fill:#3f959e; stroke:none;" d="M153 281L154 282L153 281z"/>
<path style="fill:#346871; stroke:none;" d="M154 281L155 282L154 281z"/>
<path style="fill:#66a6ac; stroke:none;" d="M451 281L452 282L451 281M455 281L456 282L455 281z"/>
<path style="fill:#3f959e; stroke:none;" d="M151 282L152 283L151 282z"/>
<path style="fill:#346871; stroke:none;" d="M153 282L154 283L153 282z"/>
<path style="fill:#66a6ac; stroke:none;" d="M450 282L451 283L450 282M456 282L457 283L456 282M494 282L494 327L495 327C495 314.258 498.91 293.701 494 282z"/>
<path style="fill:#346871; stroke:none;" d="M149 283L150 284L149 283z"/>
<path style="fill:#3f959e; stroke:none;" d="M150 283L151 284L150 283z"/>
<path style="fill:#66a6ac; stroke:none;" d="M258 283L259 284L258 283z"/>
<path style="fill:#346871; stroke:none;" d="M265 283L266 284L265 283z"/>
<path style="fill:#3f959e; stroke:none;" d="M259 284L259 285L264 285L259 284z"/>
<path style="fill:#346871; stroke:none;" d="M264 284L265 285L264 284M357 284L357 296L358 296L357 284z"/>
<path style="fill:#66a6ac; stroke:none;" d="M450 284L451 285L450 284M455.667 284.333L456.333 284.667L455.667 284.333z"/>
<path style="fill:#346871; stroke:none;" d="M147 285L148 286L147 285z"/>
<path style="fill:#3f959e; stroke:none;" d="M148 285L149 286L148 285M451 285L452 286L451 285M147 286L148 287L147 286z"/>
<path style="fill:#346871; stroke:none;" d="M149 286L148 289L149 289L149 286z"/>
<path style="fill:#3f959e; stroke:none;" d="M146 287L147 288L146 287M149.667 287.333L150.333 287.667L149.667 287.333z"/>
<path style="fill:#66a6ac; stroke:none;" d="M149 288L150 289L149 288z"/>
<path style="fill:#346871; stroke:none;" d="M150 288L151 289L150 288z"/>
<path style="fill:#3f959e; stroke:none;" d="M199 288L199 320L200 320L199 288z"/>
<path style="fill:#66a6ac; stroke:none;" d="M356 288L356 307L357 307L356 288z"/>
<path style="fill:#3f959e; stroke:none;" d="M145 289L146 290L145 289z"/>
<path style="fill:#346871; stroke:none;" d="M146 289L147 290L146 289M495.333 289.667L495.667 290.333L495.333 289.667M145 290L146 291L145 290z"/>
<path style="fill:#3f959e; stroke:none;" d="M236 291L237 292L236 291z"/>
<path style="fill:#2ee0e9; stroke:none;" d="M235 294L240 294C238.22 291.626 236.78 291.626 235 294z"/>
<path style="fill:#346871; stroke:none;" d="M238.667 291.333L239.333 291.667L238.667 291.333M519 291L520 292L519 291z"/>
<path style="fill:#2ee0e9; stroke:none;" d="M521.119 292.346C517.541 293.534 519.068 299.278 522.8 298.11C526.378 296.989 524.632 291.178 521.119 292.346z"/>
<path style="fill:#346871; stroke:none;" d="M524 291L526 293L524 291z"/>
<path style="fill:#3f959e; stroke:none;" d="M234 292L235 293L234 292z"/>
<path style="fill:#346871; stroke:none;" d="M240 292L241 293L240 292M518 292L519 293L518 292z"/>
<path style="fill:#66a6ac; stroke:none;" d="M524 292L525 293L524 292z"/>
<path style="fill:#346871; stroke:none;" d="M142 293L143 294L142 293M233.333 293.667L233.667 294.333L233.333 293.667z"/>
<path style="fill:#66a6ac; stroke:none;" d="M234 293L235 294L234 293z"/>
<path style="fill:#3f959e; stroke:none;" d="M240.333 293.667L240.667 294.333L240.333 293.667M525 293L526 294L525 293z"/>
<path style="fill:#346871; stroke:none;" d="M141 294L142 295L141 294z"/>
<path style="fill:#3f959e; stroke:none;" d="M234.667 294.333L235.333 294.667L234.667 294.333z"/>
<path style="fill:#346871; stroke:none;" d="M236 294L237 295L236 294z"/>
<path style="fill:#3f959e; stroke:none;" d="M237.667 294.333L238.333 294.667L237.667 294.333z"/>
<path style="fill:#346871; stroke:none;" d="M239 294L240 295L239 294z"/>
<path style="fill:#66a6ac; stroke:none;" d="M525 294L526 295L525 294z"/>
<path style="fill:#346871; stroke:none;" d="M240 295L241 296L240 295M517 295L518 296L517 295M526 295L525 298L526 295z"/>
<path style="fill:#3f959e; stroke:none;" d="M52 296L49 299L49 300L56 301L56 300L50 300L50 299L55 299L52 296M138 296L139 297L138 296z"/>
<path style="fill:#346871; stroke:none;" d="M139 296L140 297L139 296z"/>
<path style="fill:#3f959e; stroke:none;" d="M518 296L519 297L518 296M525 296L526 297L525 296z"/>
<path style="fill:#346871; stroke:none;" d="M51 297L52 298L51 297M136 297L136 326L137 326L136 297M138 297L139 298L138 297M315 297L315 299L317 299L317 297L315 297M518 297L519 298L518 297M49 298L50 299L49 298z"/>
<path style="fill:#2ee0e9; stroke:none;" d="M51 299L51 300L55 300L51 299z"/>
<path style="fill:#346871; stroke:none;" d="M55 298L56 299L55 298M519 298L520 299L519 298z"/>
<path style="fill:#3f959e; stroke:none;" d="M523 298L524 299L523 298z"/>
<path style="fill:#346871; stroke:none;" d="M524 298L525 299L524 298z"/>
<path style="fill:#66a6ac; stroke:none;" d="M50 299L51 300L50 299M55 299L56 300L55 299z"/>
<path style="fill:#346871; stroke:none;" d="M520 299L520 300L524 300L520 299M49.3333 300.667L49.6667 301.333L49.3333 300.667M56 300L57 301L56 300M355 300L356 320L357 320L355 300M52.6667 301.333L53.3333 301.667L52.6667 301.333M317 303L318 304L317 303M283 304L283 307L284 307L283 304z"/>
<path style="fill:#66a6ac; stroke:none;" d="M284 304L283 317L284 317L284 304M174 305L175 306L174 305z"/>
<path style="fill:#3f959e; stroke:none;" d="M174 306L174 309L175 309L174 306M283 307L283 316L284 316L283 307M356 307L356 312L357 312L356 307z"/>
<path style="fill:#346871; stroke:none;" d="M171 308L171 310L173 310L171 308M296 308L295 311L299 310L299 309L296 310L296 308z"/>
<path style="fill:#66a6ac; stroke:none;" d="M174.333 309.667L174.667 310.333L174.333 309.667M296.667 309.333L297.333 309.667L296.667 309.333z"/>
<path style="fill:#3f959e; stroke:none;" d="M174 311L175 312L174 311z"/>
<path style="fill:#66a6ac; stroke:none;" d="M174.333 312.667L174.667 313.333L174.333 312.667z"/>
<path style="fill:#346871; stroke:none;" d="M278 312L278 328L279 328L278 312z"/>
<path style="fill:#3f959e; stroke:none;" d="M355 312L355 316L356 316L355 312M174 314L173 319L174 319L174 314z"/>
<path style="fill:#346871; stroke:none;" d="M285 314L287 320L289 323C290.17 318.559 289.119 316.078 285 314M282 315L280 320L281 320L282 315z"/>
<path style="fill:#2ee0e9; stroke:none;" d="M282 320L288 320C286.008 316.703 283.951 316.665 282 320z"/>
<path style="fill:#3f959e; stroke:none;" d="M285.667 316.333L286.333 316.667L285.667 316.333z"/>
<path style="fill:#66a6ac; stroke:none;" d="M355 316L355 324L356 324L355 316z"/>
<path style="fill:#3f959e; stroke:none;" d="M282 317L283 318L282 317z"/>
<path style="fill:#66a6ac; stroke:none;" d="M287 317L288 318L287 317z"/>
<path style="fill:#346871; stroke:none;" d="M172 318L171 322L179 321L179 320L172 321L172 318z"/>
<path style="fill:#2ee0e9; stroke:none;" d="M174 318L174 320L176 320L174 318z"/>
<path style="fill:#66a6ac; stroke:none;" d="M175 318L176 319L175 318z"/>
<path style="fill:#3f959e; stroke:none;" d="M281 318L282 319L281 318M288 318L288 321L289 321L288 318z"/>
<path style="fill:#66a6ac; stroke:none;" d="M172.667 319.333L173.333 319.667L172.667 319.333M176 319L177 320L176 319z"/>
<path style="fill:#3f959e; stroke:none;" d="M177 319L172 320L172 321L177 319z"/>
<path style="fill:#66a6ac; stroke:none;" d="M281 319L280 321L281 319z"/>
<path style="fill:#3f959e; stroke:none;" d="M285 319L286 320L285 319z"/>
<path style="fill:#66a6ac; stroke:none;" d="M199 320L200 321L199 320z"/>
<path style="fill:#3f959e; stroke:none;" d="M281 320L282 321L281 320z"/>
<path style="fill:#346871; stroke:none;" d="M282 320L283 321L282 320z"/>
<path style="fill:#3f959e; stroke:none;" d="M199 321L200 322L199 321z"/>
<path style="fill:#346871; stroke:none;" d="M280 321L281 322L280 321M138 322L141 335L142 335L138 322z"/>
<path style="fill:#66a6ac; stroke:none;" d="M199.333 322.667L199.667 323.333L199.333 322.667z"/>
<path style="fill:#346871; stroke:none;" d="M356 322L359 326L356 322z"/>
<path style="fill:#3f959e; stroke:none;" d="M199 324L200 325L199 324z"/>
<path style="fill:#346871; stroke:none;" d="M353 324L354 325L353 324z"/>
<path style="fill:#3f959e; stroke:none;" d="M354 324L355 325L354 324z"/>
<path style="fill:#2ee0e9; stroke:none;" d="M353 327L358 327C355.885 325.073 354.828 324.631 353 327z"/>
<path style="fill:#3f959e; stroke:none;" d="M356 324L357 325L356 324z"/>
<path style="fill:#346871; stroke:none;" d="M196 325L196 327L198 327L196 325z"/>
<path style="fill:#66a6ac; stroke:none;" d="M199 325L200 326L199 325z"/>
<path style="fill:#3f959e; stroke:none;" d="M352 325L353 326L352 325z"/>
<path style="fill:#66a6ac; stroke:none;" d="M357 325L358 326L357 325z"/>
<path style="fill:#3f959e; stroke:none;" d="M136 326L136 334L137 334L136 326z"/>
<path style="fill:#2ee0e9; stroke:none;" d="M137 326L134 360L140 360C140.504 348.265 142.129 337.133 137 326z"/>
<path style="fill:#3f959e; stroke:none;" d="M199 326L204 334L205 334L199 326z"/>
<path style="fill:#346871; stroke:none;" d="M200 326L201 327L200 326z"/>
<path style="fill:#3f959e; stroke:none;" d="M224 326L225 327L224 326z"/>
<path style="fill:#66a6ac; stroke:none;" d="M352 326L353 327L352 326M358 326L359 327L358 326z"/>
<path style="fill:#346871; stroke:none;" d="M493 326L492 328L493 326M495 326L497 328L495 326M133 327L134 328L133 327M199 327L200 328L199 327z"/>
<path style="fill:#66a6ac; stroke:none;" d="M224 327L226 329L224 327z"/>
<path style="fill:#346871; stroke:none;" d="M225 327L226 328L225 327M351 327L352 328L351 327z"/>
<path style="fill:#3f959e; stroke:none;" d="M352 327L352 328L359 328L352 327z"/>
<path style="fill:#346871; stroke:none;" d="M359 327L360 328L359 327z"/>
<path style="fill:#3f959e; stroke:none;" d="M493 327L494 328L493 327z"/>
<path style="fill:#2ee0e9; stroke:none;" d="M491 331L498 332C496.596 327.588 493.571 327.158 491 331z"/>
<path style="fill:#3f959e; stroke:none;" d="M495 327L496 328L495 327z"/>
<path style="fill:#346871; stroke:none;" d="M134 328L134 357L135 357C135 350.693 138.531 331.961 134 328M200 328L201 329L200 328M226 328L225 330L226 328M355.667 328.333L356.333 328.667L355.667 328.333M420.667 328.333L421.333 328.667L420.667 328.333z"/>
<path style="fill:#3f959e; stroke:none;" d="M491 328L492 329L491 328M497 328L498 329L497 328M138 329L139 333L140 333L138 329z"/>
<path style="fill:#346871; stroke:none;" d="M202 329L203 330L202 329z"/>
<path style="fill:#3f959e; stroke:none;" d="M226 329L227 330L226 329z"/>
<path style="fill:#346871; stroke:none;" d="M490 329L490 333L494 333L494 332L490 329z"/>
<path style="fill:#66a6ac; stroke:none;" d="M491 329L492 330L491 329z"/>
<path style="fill:#346871; stroke:none;" d="M498 329L499 330L498 329M201 330L202 331L201 330M203 330L204 331L203 330z"/>
<path style="fill:#66a6ac; stroke:none;" d="M226 330L229 333L226 330z"/>
<path style="fill:#346871; stroke:none;" d="M227 330L228 331L227 330z"/>
<path style="fill:#3f959e; stroke:none;" d="M498 330L494 332L494 333L498 330z"/>
<path style="fill:#346871; stroke:none;" d="M202 331L203 332L202 331M228 331L229 332L228 331z"/>
<path style="fill:#66a6ac; stroke:none;" d="M491 331L492 332L491 331z"/>
<path style="fill:#346871; stroke:none;" d="M7 332L8 333L7 332M204 332L205 333L204 332M227 332L228 333L227 332M383 332L380.342 350L383 372L384 372C384 366.472 380.131 347.245 385 346L383 332M498 332L499 333L498 332z"/>
<path style="fill:#3f959e; stroke:none;" d="M140 333L140 339L141 339L140 333z"/>
<path style="fill:#346871; stroke:none;" d="M203 333L204 334L203 333M205 333L204 334L206 338L207 338L208 336L205 333M228 333L229 334L228 333z"/>
<path style="fill:#3f959e; stroke:none;" d="M229 333L230 334L229 333z"/>
<path style="fill:#66a6ac; stroke:none;" d="M229 334L232 337L229 334z"/>
<path style="fill:#346871; stroke:none;" d="M230 334L231 335L230 334z"/>
<path style="fill:#3f959e; stroke:none;" d="M205 335L206 336L205 335z"/>
<path style="fill:#346871; stroke:none;" d="M229 335L230 336L229 335z"/>
<path style="fill:#3f959e; stroke:none;" d="M135 336L135 357L136 357L135 336z"/>
<path style="fill:#346871; stroke:none;" d="M141 336L142 349L143 349L144 336L141 336z"/>
<path style="fill:#66a6ac; stroke:none;" d="M206 336L207 337L206 336z"/>
<path style="fill:#346871; stroke:none;" d="M230 336L233 338L233 337L230 336z"/>
<path style="fill:#3f959e; stroke:none;" d="M207.333 337.667L207.667 338.333L207.333 337.667M231 337L232 338L231 337z"/>
<path style="fill:#346871; stroke:none;" d="M144 338L145 339L144 338M208 338L207 339L210 341L212 345L208 338z"/>
<path style="fill:#66a6ac; stroke:none;" d="M232 338L235 342L232 338M208 339L209 340L208 339z"/>
<path style="fill:#346871; stroke:none;" d="M233 339L234 340L233 339M496 342L499 341L500 342L499 345L500 345L499 339L496 342M234 340L235 341L234 340M386 340L387 354L387 355C392.81 351.324 388.483 344.753 386 340z"/>
<path style="fill:#3f959e; stroke:none;" d="M209 341L210 342L209 341z"/>
<path style="fill:#346871; stroke:none;" d="M233 341L234 342L233 341M235 341L236 342L235 341z"/>
<path style="fill:#3f959e; stroke:none;" d="M497 341L498 342L497 341z"/>
<path style="fill:#66a6ac; stroke:none;" d="M498 341L496 342L496 344L500 344L498 341z"/>
<path style="fill:#3f959e; stroke:none;" d="M210 342L211 343L210 342M234.667 342.333L235.333 342.667L234.667 342.333M499 342L500 343L499 342M211 343L212 344L211 343z"/>
<path style="fill:#66a6ac; stroke:none;" d="M235 343L237 345L235 343z"/>
<path style="fill:#346871; stroke:none;" d="M236 343L237 344L236 343M519 343L520 344L519 343z"/>
<path style="fill:#3f959e; stroke:none;" d="M141 344L141 352L142 352L141 344M212 344L215 348L212 344z"/>
<path style="fill:#346871; stroke:none;" d="M235 344L236 345L235 344M237 344L238 345L237 344M402 344L402 361L403 361L402 344z"/>
<path style="fill:#3f959e; stroke:none;" d="M496 344L497 345L496 344z"/>
<path style="fill:#346871; stroke:none;" d="M213 345L214 346L213 345z"/>
<path style="fill:#3f959e; stroke:none;" d="M236.667 345.333L237.333 345.667L236.667 345.333M383 345L381 352L382 352L385 346L383 345z"/>
<path style="fill:#2ee0e9; stroke:none;" d="M385 345C381.981 349.493 381.997 352.532 388 353L385 345z"/>
<path style="fill:#3f959e; stroke:none;" d="M386 345L388 348L386 345z"/>
<path style="fill:#346871; stroke:none;" d="M429 345L429 347L431 347L429 345M497 345L499 348L497 345z"/>
<path style="fill:#3f959e; stroke:none;" d="M498 345L499 346L498 345z"/>
<path style="fill:#346871; stroke:none;" d="M212 346L213 347L212 346z"/>
<path style="fill:#66a6ac; stroke:none;" d="M237 346L240 351L241 351L237 346z"/>
<path style="fill:#346871; stroke:none;" d="M238 346L239 347L238 346M213 347L214 348L213 347M237 347L238 348L237 347z"/>
<path style="fill:#66a6ac; stroke:none;" d="M214 348L216 350L214 348z"/>
<path style="fill:#346871; stroke:none;" d="M215 348L216 349L215 348M238 348L239 349L238 348z"/>
<path style="fill:#3f959e; stroke:none;" d="M388 348L388 353L384 353L384 354L389 354L388 348z"/>
<path style="fill:#346871; stroke:none;" d="M214 349L215 350L214 349M240 349L241 350L240 349M215 350L215 351L219 354C216.221 363.403 218 375.218 218 385L218 448C218 454.735 214.836 473.487 220 478C214.386 447.76 219 412.767 219 382C219 374.029 222.744 354.102 215 350M239 350L240 351L239 350M241 350L240 352L241 350z"/>
<path style="fill:#66a6ac; stroke:none;" d="M216 351L217 352L216 351z"/>
<path style="fill:#3f959e; stroke:none;" d="M241 351L244 355L241 351z"/>
<path style="fill:#346871; stroke:none;" d="M141 352L141 359L142 359L141 352z"/>
<path style="fill:#66a6ac; stroke:none;" d="M217 352L218 353L217 352M382 352L384 354L382 352z"/>
<path style="fill:#346871; stroke:none;" d="M241 353L242 354L241 353M243 353L244 354L243 353z"/>
<path style="fill:#3f959e; stroke:none;" d="M382 353L383 354L382 353M140 354L140 358L141 358L140 354M218 354L219 355L218 354z"/>
<path style="fill:#346871; stroke:none;" d="M242.333 354.667L242.667 355.333L242.333 354.667z"/>
<path style="fill:#3f959e; stroke:none;" d="M219 355L219 392L220 392C220 381.351 223.111 364.798 219 355z"/>
<path style="fill:#66a6ac; stroke:none;" d="M243 355L243 433L244 433L244 379L243 355z"/>
<path style="fill:#3f959e; stroke:none;" d="M134 357L135 358L134 357z"/>
<path style="fill:#346871; stroke:none;" d="M133 358L134 359L133 358z"/>
<path style="fill:#66a6ac; stroke:none;" d="M134 358L135 359L134 358M140.333 358.667L140.667 359.333L140.333 358.667M133.333 359.667L133.667 360.333L133.333 359.667z"/>
<path style="fill:#3f959e; stroke:none;" d="M138 359L139 360L138 359M141 359L142 360L141 359z"/>
<path style="fill:#346871; stroke:none;" d="M506 359L509 368L510 368C511.207 364.592 512.278 362.195 509 360L509 361L510 365L508 365L508 359L506 359M533 359L533 363L536 362L536 361L534 362L535 359L533 359M132 360L133 361L132 360z"/>
<path style="fill:#3f959e; stroke:none;" d="M134 360L135 361L134 360z"/>
<path style="fill:#346871; stroke:none;" d="M135 360L136 361L135 360M140 360L140 361L143 361L140 360z"/>
<path style="fill:#3f959e; stroke:none;" d="M508 360L507 362L508 360z"/>
<path style="fill:#66a6ac; stroke:none;" d="M534.333 360.667L534.667 361.333L534.333 360.667z"/>
<path style="fill:#346871; stroke:none;" d="M133 361L134 362L133 361z"/>
<path style="fill:#66a6ac; stroke:none;" d="M507 362L507 363L511 363L507 362z"/>
<path style="fill:#3f959e; stroke:none;" d="M510 361L511 362L510 361z"/>
<path style="fill:#346871; stroke:none;" d="M402 362L402 364L404 364L404 362L402 362z"/>
<path style="fill:#2ee0e9; stroke:none;" d="M508.667 362.333L509.333 362.667L508.667 362.333z"/>
<path style="fill:#3f959e; stroke:none;" d="M507 363L508 364L507 363M510 363L511 364L510 363M508.667 364.333L509.333 364.667L508.667 364.333z"/>
<path style="fill:#346871; stroke:none;" d="M137 368L138 369L140 366L137 368M472 367L472 369L474 367L472 367M553 368L553 505L554 505L554 409C554 397.318 557.508 378.742 553 368M244 380L244 383L246 383L246 380L244 380z"/>
<path style="fill:#3f959e; stroke:none;" d="M245 381L246 382L245 381z"/>
<path style="fill:#346871; stroke:none;" d="M365.667 384.333L366.333 384.667L365.667 384.333M467 384L467 460L468 460L468 408L467 384z"/>
<path style="fill:#66a6ac; stroke:none;" d="M219 392L219 475L220 475L220 418L219 392z"/>
<path style="fill:#346871; stroke:none;" d="M301.667 399.333L302.333 399.667L301.667 399.333M413.667 402.333L414.333 402.667L413.667 402.333M489 407L491 418L488 417L488 418L492 418L489 407z"/>
<path style="fill:#3f959e; stroke:none;" d="M489 416L490 417L489 416z"/>
<path style="fill:#66a6ac; stroke:none;" d="M489.667 417.333L490.333 417.667L489.667 417.333z"/>
<path style="fill:#346871; stroke:none;" d="M181 418L182 419L181 418M146 420L145 422L147 422L146 420M241 433L241 434L245 436L246 436L246 432L241 433M228 440L227 443L228 440M251 451L252 452L251 451M479.667 463.333L480.333 463.667L479.667 463.333M87 473L87 475L89 475L89 473L87 473M534 474L535 477L534 474z"/>
<path style="fill:#3f959e; stroke:none;" d="M219 475L220 476L219 475z"/>
<path style="fill:#346871; stroke:none;" d="M228 477L229 478L228 477M348 478L350 480L348 478z"/>
<path style="fill:#66a6ac; stroke:none;" d="M348 479L349 480L348 479z"/>
<path style="fill:#346871; stroke:none;" d="M349 488L350 489L349 488M300 522L300 524L302 524L302 522L300 522M509 535L510 536L509 535M39 536L40 538L41 538L42 536L39 536M269 539L269 541L271 541L271 539L269 539z"/>
</svg>
